<?xml version="1.0" standalone="no"?>
<!DOCTYPE svg PUBLIC "-//W3C//DTD SVG 20010904//EN"
 "http://www.w3.org/TR/2001/REC-SVG-20010904/DTD/svg10.dtd">
<svg version="1.0" xmlns="http://www.w3.org/2000/svg"
 width="1200.000000pt" height="1200.000000pt" viewBox="0 0 1200.000000 1200.000000"
 preserveAspectRatio="xMidYMid meet">
<metadata>
Created by potrace 1.11, written by Peter Selinger 2001-2013
</metadata>
<g transform="translate(0.000000,1200.000000) scale(0.100000,-0.100000)"
fill="#000000" stroke="none">
<path d="M7155 10051 c-75 -19 -112 -51 -144 -121 -44 -97 -10 -200 84 -256
37 -21 63 -27 172 -35 247 -18 419 -55 609 -130 329 -131 648 -400 842 -709
58 -93 146 -279 181 -385 50 -152 91 -397 91 -549 0 -75 39 -150 99 -188 42
-27 52 -29 118 -26 62 3 76 7 110 34 68 55 83 93 83 219 0 205 -35 409 -111
640 -235 717 -835 1270 -1570 1448 -187 46 -492 77 -564 58z"/>
<path d="M4848 9760 c-49 -15 -92 -47 -159 -122 -453 -503 -705 -1039 -795
-1698 -25 -175 -25 -577 -1 -750 48 -344 133 -635 268 -920 l60 -124 -21 -26
c-37 -46 -110 -174 -131 -230 -40 -108 -52 -167 -56 -298 -5 -112 -2 -147 16
-225 40 -172 111 -304 234 -434 l69 -72 -345 -703 -345 -703 -258 -6 c-230 -5
-266 -8 -324 -27 -218 -73 -386 -247 -447 -462 -16 -58 -18 -108 -18 -465 0
-394 0 -401 22 -442 26 -49 59 -76 116 -98 38 -14 251 -15 2198 -13 l2156 3
48 30 c35 21 56 45 74 80 l26 50 0 390 c0 378 -1 392 -23 472 -68 236 -259
417 -497 469 -40 9 -140 13 -298 14 l-238 0 -15 28 c-52 95 -683 1386 -679
1390 2 2 66 -24 142 -58 296 -135 608 -225 928 -267 173 -22 509 -22 700 2
594 72 1120 293 1565 656 171 139 275 246 289 294 16 58 13 104 -8 150 -13 28
-634 655 -2052 2072 -1773 1771 -2039 2033 -2074 2042 -46 13 -88 13 -127 1z
m1921 -2352 l1841 -1846 -62 -50 c-314 -248 -645 -408 -1038 -501 -188 -45
-316 -62 -520 -68 -406 -12 -782 61 -1144 222 l-104 47 19 55 c73 214 60 469
-35 670 -129 271 -368 456 -656 509 -146 26 -323 14 -449 -30 -24 -9 -48 -16
-53 -16 -14 0 -90 170 -136 305 -111 323 -148 578 -139 939 11 412 103 771
289 1126 99 190 307 493 334 487 7 -1 840 -833 1853 -1849z m-1780 -1369 c235
-41 402 -240 402 -479 0 -192 -102 -355 -276 -441 -267 -131 -604 25 -680 316
-30 117 -14 254 43 359 37 69 137 167 203 200 56 27 159 54 213 55 16 1 59 -4
95 -10z m-84 -1374 c66 0 139 2 163 5 l44 5 299 -609 c165 -335 298 -611 296
-613 -2 -2 -364 -2 -804 -1 l-799 3 300 612 301 612 40 -7 c22 -4 94 -7 160
-7z m1757 -1644 c63 -27 108 -68 134 -126 23 -48 24 -59 24 -292 l0 -243
-1905 0 -1905 0 0 243 0 243 28 54 c30 60 79 104 138 125 33 12 320 14 1741
15 1637 0 1703 -1 1745 -19z"/>
<path d="M7036 9019 c-52 -12 -91 -42 -120 -92 -47 -81 -43 -157 13 -234 40
-55 85 -73 209 -84 58 -5 133 -16 166 -25 263 -68 488 -263 587 -510 41 -103
57 -172 68 -300 7 -84 14 -112 33 -140 93 -138 306 -120 364 32 14 36 16 65
11 152 -26 518 -375 975 -872 1141 -146 49 -378 79 -459 60z"/>
</g>
</svg>
